<mxfile host="app.diagrams.net" modified="2021-09-26T07:02:48.866Z" agent="5.0 (Windows NT 6.1; Win64; x64) AppleWebKit/537.36 (KHTML, like Gecko) Chrome/73.0.3683.86 Safari/537.36" etag="yEym387fvf8zxjD6ibN6" version="15.3.3" type="github">
  <diagram id="Xk_f9FQ-fdxpMRcpn_Gj" name="Page-1">
    <mxGraphModel dx="1102" dy="533" grid="1" gridSize="10" guides="1" tooltips="1" connect="1" arrows="1" fold="1" page="1" pageScale="1" pageWidth="827" pageHeight="1169" math="0" shadow="0">
      <root>
        <mxCell id="0" />
        <mxCell id="1" parent="0" />
        <mxCell id="PSqSuOR-0Q2vENF5BvZt-1" value="配网全过程平台" style="rounded=0;whiteSpace=wrap;html=1;hachureGap=4;pointerEvents=0;fillColor=#f0a30a;strokeColor=#BD7000;fontColor=#000000;" vertex="1" parent="1">
          <mxGeometry x="280" y="50" width="250" height="40" as="geometry" />
        </mxCell>
        <mxCell id="PSqSuOR-0Q2vENF5BvZt-2" value="" style="rounded=0;whiteSpace=wrap;html=1;hachureGap=4;pointerEvents=0;fillColor=#f0a30a;strokeColor=#BD7000;fontColor=#000000;" vertex="1" parent="1">
          <mxGeometry x="100" y="140" width="160" height="170" as="geometry" />
        </mxCell>
        <mxCell id="PSqSuOR-0Q2vENF5BvZt-3" value="" style="rounded=0;whiteSpace=wrap;html=1;hachureGap=4;pointerEvents=0;fillColor=#dae8fc;strokeColor=#6c8ebf;" vertex="1" parent="1">
          <mxGeometry x="550" y="140" width="180" height="170" as="geometry" />
        </mxCell>
        <mxCell id="PSqSuOR-0Q2vENF5BvZt-4" value="规划数据库" style="shape=datastore;whiteSpace=wrap;html=1;hachureGap=4;pointerEvents=0;fillColor=#e3c800;strokeColor=#B09500;fontColor=#000000;" vertex="1" parent="1">
          <mxGeometry x="350" y="320" width="110" height="60" as="geometry" />
        </mxCell>
        <mxCell id="PSqSuOR-0Q2vENF5BvZt-5" value="&lt;b&gt;&lt;font style=&quot;font-size: 15px&quot;&gt;项目中心&lt;/font&gt;&lt;/b&gt;" style="text;html=1;strokeColor=none;fillColor=none;align=center;verticalAlign=middle;whiteSpace=wrap;rounded=0;hachureGap=4;pointerEvents=0;" vertex="1" parent="1">
          <mxGeometry x="147.5" y="150" width="65" height="20" as="geometry" />
        </mxCell>
        <mxCell id="PSqSuOR-0Q2vENF5BvZt-7" value="&lt;font style=&quot;font-size: 16px&quot;&gt;&lt;b&gt;数据中台&lt;/b&gt;&lt;/font&gt;" style="text;html=1;strokeColor=none;fillColor=none;align=center;verticalAlign=middle;whiteSpace=wrap;rounded=0;hachureGap=4;pointerEvents=0;" vertex="1" parent="1">
          <mxGeometry x="590" y="150" width="90" height="20" as="geometry" />
        </mxCell>
        <mxCell id="PSqSuOR-0Q2vENF5BvZt-8" value="&lt;b&gt;&lt;font style=&quot;font-size: 16px&quot;&gt;规划平台&lt;/font&gt;&lt;/b&gt;" style="rounded=0;whiteSpace=wrap;html=1;hachureGap=4;pointerEvents=0;fillColor=#1ba1e2;strokeColor=#006EAF;fontColor=#ffffff;" vertex="1" parent="1">
          <mxGeometry x="345" y="180" width="120" height="60" as="geometry" />
        </mxCell>
        <mxCell id="PSqSuOR-0Q2vENF5BvZt-9" value="项目计划服务" style="rounded=0;whiteSpace=wrap;html=1;hachureGap=4;pointerEvents=0;" vertex="1" parent="1">
          <mxGeometry x="120" y="190" width="120" height="30" as="geometry" />
        </mxCell>
        <mxCell id="PSqSuOR-0Q2vENF5BvZt-10" value="项目基础数据服务" style="rounded=0;whiteSpace=wrap;html=1;hachureGap=4;pointerEvents=0;" vertex="1" parent="1">
          <mxGeometry x="120" y="230" width="120" height="30" as="geometry" />
        </mxCell>
        <mxCell id="PSqSuOR-0Q2vENF5BvZt-11" value="&lt;b&gt;&lt;font style=&quot;font-size: 17px&quot;&gt;......&lt;/font&gt;&lt;/b&gt;" style="rounded=0;whiteSpace=wrap;html=1;hachureGap=4;pointerEvents=0;verticalAlign=middle;" vertex="1" parent="1">
          <mxGeometry x="120" y="270" width="120" height="30" as="geometry" />
        </mxCell>
        <mxCell id="PSqSuOR-0Q2vENF5BvZt-12" value="PMS数据" style="rounded=0;whiteSpace=wrap;html=1;hachureGap=4;pointerEvents=0;" vertex="1" parent="1">
          <mxGeometry x="570" y="170" width="140" height="30" as="geometry" />
        </mxCell>
        <mxCell id="PSqSuOR-0Q2vENF5BvZt-13" value="用采数据" style="rounded=0;whiteSpace=wrap;html=1;hachureGap=4;pointerEvents=0;" vertex="1" parent="1">
          <mxGeometry x="570" y="210" width="140" height="30" as="geometry" />
        </mxCell>
        <mxCell id="PSqSuOR-0Q2vENF5BvZt-14" value="ERP数据" style="rounded=0;whiteSpace=wrap;html=1;hachureGap=4;pointerEvents=0;" vertex="1" parent="1">
          <mxGeometry x="570" y="250" width="140" height="30" as="geometry" />
        </mxCell>
        <mxCell id="PSqSuOR-0Q2vENF5BvZt-16" value="&lt;b&gt;JDBC&lt;/b&gt;" style="text;html=1;strokeColor=none;fillColor=none;align=center;verticalAlign=middle;whiteSpace=wrap;rounded=0;hachureGap=4;pointerEvents=0;" vertex="1" parent="1">
          <mxGeometry x="360" y="260" width="40" height="20" as="geometry" />
        </mxCell>
        <mxCell id="PSqSuOR-0Q2vENF5BvZt-17" value="" style="endArrow=classic;html=1;startSize=14;endSize=14;sourcePerimeterSpacing=8;targetPerimeterSpacing=8;exitX=0.5;exitY=1;exitDx=0;exitDy=0;entryX=0.5;entryY=0;entryDx=0;entryDy=0;" edge="1" parent="1" source="PSqSuOR-0Q2vENF5BvZt-8" target="PSqSuOR-0Q2vENF5BvZt-4">
          <mxGeometry width="50" height="50" relative="1" as="geometry">
            <mxPoint x="390" y="300" as="sourcePoint" />
            <mxPoint x="440" y="250" as="targetPoint" />
          </mxGeometry>
        </mxCell>
        <mxCell id="PSqSuOR-0Q2vENF5BvZt-18" value="" style="endArrow=classic;html=1;startSize=14;endSize=14;sourcePerimeterSpacing=8;targetPerimeterSpacing=8;entryX=1;entryY=0.412;entryDx=0;entryDy=0;entryPerimeter=0;exitX=0;exitY=0.5;exitDx=0;exitDy=0;" edge="1" parent="1" source="PSqSuOR-0Q2vENF5BvZt-8" target="PSqSuOR-0Q2vENF5BvZt-2">
          <mxGeometry width="50" height="50" relative="1" as="geometry">
            <mxPoint x="340" y="211" as="sourcePoint" />
            <mxPoint x="440" y="250" as="targetPoint" />
          </mxGeometry>
        </mxCell>
        <mxCell id="PSqSuOR-0Q2vENF5BvZt-19" value="&lt;b&gt;HTTP&lt;/b&gt;" style="text;html=1;strokeColor=none;fillColor=none;align=center;verticalAlign=middle;whiteSpace=wrap;rounded=0;hachureGap=4;pointerEvents=0;" vertex="1" parent="1">
          <mxGeometry x="290" y="190" width="40" height="20" as="geometry" />
        </mxCell>
        <mxCell id="PSqSuOR-0Q2vENF5BvZt-20" value="" style="endArrow=classic;html=1;startSize=14;endSize=14;sourcePerimeterSpacing=8;targetPerimeterSpacing=8;exitX=1;exitY=0.5;exitDx=0;exitDy=0;" edge="1" parent="1" source="PSqSuOR-0Q2vENF5BvZt-8">
          <mxGeometry width="50" height="50" relative="1" as="geometry">
            <mxPoint x="470" y="210" as="sourcePoint" />
            <mxPoint x="550" y="210" as="targetPoint" />
          </mxGeometry>
        </mxCell>
        <mxCell id="PSqSuOR-0Q2vENF5BvZt-21" value="HTTP" style="text;html=1;strokeColor=none;fillColor=none;align=center;verticalAlign=middle;whiteSpace=wrap;rounded=0;hachureGap=4;pointerEvents=0;" vertex="1" parent="1">
          <mxGeometry x="480" y="190" width="40" height="20" as="geometry" />
        </mxCell>
        <mxCell id="PSqSuOR-0Q2vENF5BvZt-22" value="" style="endArrow=classic;html=1;startSize=14;endSize=14;sourcePerimeterSpacing=8;targetPerimeterSpacing=8;exitX=0.5;exitY=0;exitDx=0;exitDy=0;entryX=0.5;entryY=1;entryDx=0;entryDy=0;" edge="1" parent="1" source="PSqSuOR-0Q2vENF5BvZt-8" target="PSqSuOR-0Q2vENF5BvZt-1">
          <mxGeometry width="50" height="50" relative="1" as="geometry">
            <mxPoint x="400" y="180" as="sourcePoint" />
            <mxPoint x="400" y="90" as="targetPoint" />
          </mxGeometry>
        </mxCell>
        <mxCell id="PSqSuOR-0Q2vENF5BvZt-23" value="HTTP" style="text;html=1;strokeColor=none;fillColor=none;align=center;verticalAlign=middle;whiteSpace=wrap;rounded=0;hachureGap=4;pointerEvents=0;" vertex="1" parent="1">
          <mxGeometry x="400" y="130" width="50" height="20" as="geometry" />
        </mxCell>
      </root>
    </mxGraphModel>
  </diagram>
</mxfile>
